<svg xmlns:xlink="http://www.w3.org/1999/xlink" xmlns="http://www.w3.org/2000/svg" viewBox="0 0 370 129.3881572018718" height="129.3881572018718" width="370" style="width: 370px; height: 129.388px; position: absolute; top: 50%; left: 50%; z-index: 0; cursor: pointer; overflow: visible; transform: translate(-50%, -50%) scale(0.518919);"><defs id="SvgjsDefs6306"><linearGradient id="SvgjsLinearGradient6311"><stop id="SvgjsStop6312" stop-color="#00ddff" offset="0"></stop><stop id="SvgjsStop6313" stop-color="#ff00d4" offset="1"></stop></linearGradient><linearGradient id="SvgjsLinearGradient6314"><stop id="SvgjsStop6315" stop-color="#00ddff" offset="0"></stop><stop id="SvgjsStop6316" stop-color="#ff00d4" offset="1"></stop></linearGradient><linearGradient id="SvgjsLinearGradient6311"><stop id="SvgjsStop6312" stop-color="#00ddff" offset="0"></stop><stop id="SvgjsStop6313" stop-color="#ff00d4" offset="1"></stop></linearGradient><linearGradient id="SvgjsLinearGradient6311"><stop id="SvgjsStop6312" stop-color="#00ddff" offset="0"></stop><stop id="SvgjsStop6313" stop-color="#ff00d4" offset="1"></stop></linearGradient><linearGradient id="SvgjsLinearGradient6311"><stop id="SvgjsStop6312" stop-color="#00ddff" offset="0"></stop><stop id="SvgjsStop6313" stop-color="#ff00d4" offset="1"></stop></linearGradient><linearGradient id="SvgjsLinearGradient6311"><stop id="SvgjsStop6312" stop-color="#00ddff" offset="0"></stop><stop id="SvgjsStop6313" stop-color="#ff00d4" offset="1"></stop></linearGradient><linearGradient id="SvgjsLinearGradient6311"><stop id="SvgjsStop6312" stop-color="#00ddff" offset="0"></stop><stop id="SvgjsStop6313" stop-color="#ff00d4" offset="1"></stop></linearGradient><linearGradient id="SvgjsLinearGradient6311"><stop id="SvgjsStop6312" stop-color="#00ddff" offset="0"></stop><stop id="SvgjsStop6313" stop-color="#ff00d4" offset="1"></stop></linearGradient><linearGradient id="SvgjsLinearGradient6311"><stop id="SvgjsStop6312" stop-color="#00ddff" offset="0"></stop><stop id="SvgjsStop6313" stop-color="#ff00d4" offset="1"></stop></linearGradient><linearGradient id="SvgjsLinearGradient6314"><stop id="SvgjsStop6315" stop-color="#00ddff" offset="0"></stop><stop id="SvgjsStop6316" stop-color="#ff00d4" offset="1"></stop></linearGradient><linearGradient id="SvgjsLinearGradient6314"><stop id="SvgjsStop6315" stop-color="#00ddff" offset="0"></stop><stop id="SvgjsStop6316" stop-color="#ff00d4" offset="1"></stop></linearGradient></defs><g id="SvgjsG6307" featurekey="symbolFeature-0" transform="matrix(2.507522500543556,0,0,2.507522500543556,0,0)" fill="url(&quot;#SvgjsLinearGradient6311&quot;)">    <title xmlns="http://www.w3.org/2000/svg">Asset 5LETTERS3</title>    <g xmlns="http://www.w3.org/2000/svg" id="Page-1" stroke="none" stroke-width="1" fill="none" fill-rule="evenodd">        <g id="Artboard" transform="translate(-5543.000000, -160.000000)" fill="url(&quot;#SvgjsLinearGradient6311&quot;)" fill-rule="nonzero">            <g id="Asset-5LETTERS3" transform="translate(5543.000000, 160.000000)" fill="url(&quot;#SvgjsLinearGradient6311&quot;)">                <g id="Group" fill="url(&quot;#SvgjsLinearGradient6311&quot;)">                    <path d="M27.78,7.02 C27.78,7.1 27.78,7.17 27.78,7.25 C27.78,8.45 27.51,9.61 26.98,10.69 C32.44,13.32 36.21,18.91 36.21,25.36 C36.21,34.33 28.91,41.64 19.93,41.64 C10.95,41.64 3.67,34.33 3.67,25.35 C3.67,18.79 7.58,13.12 13.19,10.55 C14.15,10.11 15.15,9.76 16.2,9.51 C17.4,9.22 18.66,9.07 19.95,9.07 C21.12,9.07 22.27,9.2 23.37,9.43 C23.39,9.4 23.41,9.37 23.43,9.34 C23.82,8.71 24.02,7.98 24.02,7.23 C24.02,6.79 23.95,6.35 23.81,5.93 C23.79,5.87 23.77,5.81 23.75,5.76 C22.52,5.52 21.25,5.39 19.95,5.39 C18.53,5.39 17.14,5.54 15.79,5.83 C14.63,6.08 13.51,6.43 12.43,6.87 C5.14,9.86 0,17.01 0,25.35 C0,36.35 8.95,45.29 19.94,45.29 C30.93,45.29 39.88,36.34 39.88,25.35 C39.88,17.14 34.89,10.07 27.78,7.02 Z" id="Path" fill="url(&quot;#SvgjsLinearGradient6311&quot;)"></path>                    <path d="M19.94,2.54 C21.33,2.54 22.63,3.15 23.53,4.21 C23.73,4.45 23.91,4.71 24.06,4.99 C24.19,5.23 24.3,5.48 24.39,5.74 C24.55,6.22 24.64,6.73 24.64,7.24 C24.64,8.1 24.4,8.94 23.96,9.67 C23.84,9.87 23.69,10.07 23.53,10.26 C23.36,10.47 23.16,10.66 22.96,10.83 C22.11,11.54 21.04,11.93 19.94,11.93 C18.84,11.93 17.86,11.57 17.04,10.92 C16.11,11.11 15.2,11.38 14.33,11.75 C15.7,13.44 17.77,14.44 19.94,14.44 C22.25,14.44 24.44,13.32 25.79,11.43 C25.91,11.26 26.03,11.09 26.13,10.92 C26.23,10.75 26.33,10.57 26.42,10.39 C26.91,9.4 27.15,8.33 27.15,7.22 C27.15,7.11 27.15,7 27.15,6.87 C27.14,6.65 27.12,6.42 27.09,6.2 C27.06,5.97 27.01,5.73 26.96,5.5 C26.17,2.26 23.29,0 19.96,0 C16.83,0 14.1,2 13.12,4.92 C14.2,4.56 15.32,4.28 16.44,4.09 C17.33,3.08 18.61,2.51 19.95,2.51 L19.94,2.54 Z" id="Path" fill="url(&quot;#SvgjsLinearGradient6311&quot;)"></path>                </g>                <rect id="Rectangle" x="17.83" y="18.14" width="4.6" height="32.46" rx="2.3" fill="url(&quot;#SvgjsLinearGradient6311&quot;)"></rect>            </g>        </g>    </g></g><g id="SvgjsG6308" featurekey="nameFeature-0" transform="matrix(2.4635491632856894,0,0,2.4635491632856894,110.14582038017808,-0.5612343420317139)" fill="url(&quot;#SvgjsLinearGradient6314&quot;)"><path d="M9.16 12.64 l-0.000039062 26.6 c0 0.13238 -0.035195 0.2516 -0.095196 0.35199 c-0.0984 0.2348 -0.32 0.408 -0.5848 0.408 l-3.8 0 c-0.36 0 -0.68 -0.32 -0.6788 -0.718 c-0.00078124 -0.013594 -0.0011719 -0.027578 -0.0011719 -0.041992 l0 -26.6 c0 -0.36 0.32 -0.64 0.68 -0.64 s0.64 0.28 0.64 0.64 l0 26 l2.52 0 l0 -26 c0 -0.36 0.28 -0.64 0.64 -0.64 s0.68 0.28 0.68 0.64 z M28.328 34 l0.06168 0.0691 c0.15719 0.17039 0.21758 0.42 0.13836 0.6548 c0 0 -0.456 2.408 -2.528 4.068 c-1.184 0.948 -2.6 1.448 -4.096 1.448 c-3.72 0 -6.744 -3.148 -6.744 -7.016 c0 -0.36398 0.29602 -0.66 0.66 -0.66 s0.66 0.29602 0.66 0.66 c0 3.14 2.432 5.696 5.424 5.696 c1.192 0 2.324 -0.4 3.272 -1.156 l0.30238 -0.26078 l-10.102 -9.8672 c-0.11602 -0.11199 -0.18402 -0.26801 -0.19602 -0.428 l-0.02 -0.39199 c0 -3.868 3.024 -7.012 6.74 -7.012 s6.744 3.144 6.744 7.012 c0 0.36398 -0.29602 0.66 -0.66 0.66 c-0.36801 0 -0.66 -0.29602 -0.66 -0.66 c0 -3.14 -2.436 -5.692 -5.424 -5.692 c-1.7764 0 -3.356 0.9016 -4.3448 2.2912 z M27.12 34.78 l0.028828 -0.087148 l-10.25 -10.072 c-0.26762 0.67 -0.4164 1.4048 -0.4184 2.1748 l0.0039844 0.083984 l9.8524 9.6156 c0.3432 -0.5128 0.6064 -1.0828 0.7836 -1.7156 l0 0 z M48.260000000000005 22.74 c1.852 1.936 2.872 4.508 2.872 7.244 s-1.02 5.308 -2.872 7.244 c-1.864 1.944 -4.34 3.012 -6.976 3.012 s-5.112 -1.068 -6.972 -3.012 c-1.852 -1.936 -2.872 -4.508 -2.872 -7.244 s1.02 -5.308 2.872 -7.244 c1.86 -1.944 4.336 -3.012 6.972 -3.012 s5.112 1.068 6.976 3.012 z M40.196 21.12 l-0.000039062 17.729 c0.35801 0.047616 0.7212 0.0716 1.088 0.0716 c0.3284 0 0.6544 -0.019219 0.976 -0.057228 l0 -17.757 c-0.32199 -0.038398 -0.64756 -0.057616 -0.97596 -0.057616 c-0.3668 0 -0.73 0.023984 -1.088 0.071172 l0 0.000039062 z M47.304 36.3165 c1.616 -1.692 2.508 -3.94 2.508 -6.332 s-0.892 -4.64 -2.508 -6.328 c-1.0512 -1.1008 -2.33 -1.8768 -3.724 -2.2824 l0 17.222 c1.3948 -0.4048 2.6724 -1.1804 3.724 -2.2792 l0 0 z M35.268 36.3164 c1.0228 1.0684 2.2588 1.8312 3.608 2.2448 l0 -17.153 c-1.3492 0.414 -2.5852 1.1776 -3.608 2.2484 c-1.616 1.688 -2.508 3.936 -2.508 6.328 s0.892 4.64 2.508 6.332 l0 0 z M81.72 12 c0.36 0 0.64 0.28043 0.64 0.64044 l0 26.68 c0 0.36 -0.28 0.68 -0.64 0.68 c-0.4 0 -0.68 -0.32 -0.68 -0.68 l0 -17.703 l-11.68 9.7028 c-0.12 0.12 -0.28 0.16 -0.4 0.16 c-0.1684 0 -0.33641 -0.056796 -0.4572 -0.17 l-0.062812 -0.030391 l-11.6 -9.6604 l0 17.7 c0 0.36 -0.28 0.68 -0.64 0.68 c-0.4 0 -0.68 -0.32 -0.68 -0.68 l0 -26.68 c0 -0.36 0.28 -0.64 0.68 -0.64 c0.36 0 0.64 0.28 0.64 0.64 l0 2.1088 l12.1 10.372 l12.1 -10.338 l0 -2.1428 c0 -0.36 0.28 -0.64 0.68 -0.64 z M81.04 19.88 l-0.000039062 -3.3759 l-11.68 10.017 c-0.12 0.08 -0.28 0.16 -0.44 0.16 c-0.15398 0 -0.3452 -0.074412 -0.4664 -0.22281 l-11.614 -9.9544 l0 3.3436 l12.104 10.081 z M101.80000000000001 38.72 l3.0396 -0.000039062 c0.36 0 0.64 0.28 0.64 0.64 c0 0.4 -0.28 0.68 -0.64 0.68 l-17 0 c-0.29238 0 -0.5324 -0.1852 -0.6116 -0.46916 c-0.043984 -0.086796 -0.067968 -0.1852 -0.067968 -0.29078 l0 -26.6 c0 -0.4 0.28 -0.68 0.68 -0.68 c0.36 0 0.64 0.28 0.64 0.68 l0 26.04 l2.48 0 l0 -26.04 c0 -0.4 0.32 -0.68 0.68 -0.68 s0.68 0.28 0.68 0.68 l0 15.415 z M92.31960000000001 38.72 l7.6948 0 l-7.6948 -8.6248 l0 8.6248 z" fill="url(&quot;#SvgjsLinearGradient6314&quot;)"></path></g></svg>