<svg xmlns:xlink="http://www.w3.org/1999/xlink" xmlns="http://www.w3.org/2000/svg" viewBox="0 0 370 129.3881572018718" height="129.3881572018718" width="370" style="width: 370px; height: 129.388px; position: absolute; top: 50%; left: 50%; z-index: 0; cursor: pointer; overflow: visible; transform: translate(-50%, -50%) scale(0.518919);"><defs id="SvgjsDefs6185"><linearGradient id="SvgjsLinearGradient6190"><stop id="SvgjsStop6191" stop-color="#00ddff" offset="0"></stop><stop id="SvgjsStop6192" stop-color="#ff00d4" offset="1"></stop></linearGradient><linearGradient id="SvgjsLinearGradient6193"><stop id="SvgjsStop6194" stop-color="#00ddff" offset="0"></stop><stop id="SvgjsStop6195" stop-color="#ff00d4" offset="1"></stop></linearGradient><linearGradient id="SvgjsLinearGradient6190"><stop id="SvgjsStop6191" stop-color="#00ddff" offset="0"></stop><stop id="SvgjsStop6192" stop-color="#ff00d4" offset="1"></stop></linearGradient><linearGradient id="SvgjsLinearGradient6190"><stop id="SvgjsStop6191" stop-color="#00ddff" offset="0"></stop><stop id="SvgjsStop6192" stop-color="#ff00d4" offset="1"></stop></linearGradient><linearGradient id="SvgjsLinearGradient6190"><stop id="SvgjsStop6191" stop-color="#00ddff" offset="0"></stop><stop id="SvgjsStop6192" stop-color="#ff00d4" offset="1"></stop></linearGradient><linearGradient id="SvgjsLinearGradient6190"><stop id="SvgjsStop6191" stop-color="#00ddff" offset="0"></stop><stop id="SvgjsStop6192" stop-color="#ff00d4" offset="1"></stop></linearGradient><linearGradient id="SvgjsLinearGradient6190"><stop id="SvgjsStop6191" stop-color="#00ddff" offset="0"></stop><stop id="SvgjsStop6192" stop-color="#ff00d4" offset="1"></stop></linearGradient><linearGradient id="SvgjsLinearGradient6190"><stop id="SvgjsStop6191" stop-color="#00ddff" offset="0"></stop><stop id="SvgjsStop6192" stop-color="#ff00d4" offset="1"></stop></linearGradient><linearGradient id="SvgjsLinearGradient6190"><stop id="SvgjsStop6191" stop-color="#00ddff" offset="0"></stop><stop id="SvgjsStop6192" stop-color="#ff00d4" offset="1"></stop></linearGradient><linearGradient id="SvgjsLinearGradient6193"><stop id="SvgjsStop6194" stop-color="#00ddff" offset="0"></stop><stop id="SvgjsStop6195" stop-color="#ff00d4" offset="1"></stop></linearGradient><linearGradient id="SvgjsLinearGradient6193"><stop id="SvgjsStop6194" stop-color="#00ddff" offset="0"></stop><stop id="SvgjsStop6195" stop-color="#ff00d4" offset="1"></stop></linearGradient></defs><g id="SvgjsG6186" featurekey="symbolFeature-0" transform="matrix(2.507522500543556,0,0,2.507522500543556,0,0)" fill="url(&quot;#SvgjsLinearGradient6190&quot;)">    <title xmlns="http://www.w3.org/2000/svg">Asset 5LETTERS3</title>    <g xmlns="http://www.w3.org/2000/svg" id="Page-1" stroke="none" stroke-width="1" fill="none" fill-rule="evenodd">        <g id="Artboard" transform="translate(-5543.000000, -160.000000)" fill="url(&quot;#SvgjsLinearGradient6190&quot;)" fill-rule="nonzero">            <g id="Asset-5LETTERS3" transform="translate(5543.000000, 160.000000)" fill="url(&quot;#SvgjsLinearGradient6190&quot;)">                <g id="Group" fill="url(&quot;#SvgjsLinearGradient6190&quot;)">                    <path d="M27.78,7.02 C27.78,7.1 27.78,7.17 27.78,7.25 C27.78,8.45 27.51,9.61 26.98,10.69 C32.44,13.32 36.21,18.91 36.21,25.36 C36.21,34.33 28.91,41.64 19.93,41.64 C10.95,41.64 3.67,34.33 3.67,25.35 C3.67,18.79 7.58,13.12 13.19,10.55 C14.15,10.11 15.15,9.76 16.2,9.51 C17.4,9.22 18.66,9.07 19.95,9.07 C21.12,9.07 22.27,9.2 23.37,9.43 C23.39,9.4 23.41,9.37 23.43,9.34 C23.82,8.71 24.02,7.98 24.02,7.23 C24.02,6.79 23.95,6.35 23.81,5.93 C23.79,5.87 23.77,5.81 23.75,5.76 C22.52,5.52 21.25,5.39 19.95,5.39 C18.53,5.39 17.14,5.54 15.79,5.83 C14.63,6.08 13.51,6.43 12.43,6.87 C5.14,9.86 0,17.01 0,25.35 C0,36.35 8.95,45.29 19.94,45.29 C30.93,45.29 39.88,36.34 39.88,25.35 C39.88,17.14 34.89,10.07 27.78,7.02 Z" id="Path" fill="url(&quot;#SvgjsLinearGradient6190&quot;)"></path>                    <path d="M19.94,2.54 C21.33,2.54 22.63,3.15 23.53,4.21 C23.73,4.45 23.91,4.71 24.06,4.99 C24.19,5.23 24.3,5.48 24.39,5.74 C24.55,6.22 24.64,6.73 24.64,7.24 C24.64,8.1 24.4,8.94 23.96,9.67 C23.84,9.87 23.69,10.07 23.53,10.26 C23.36,10.47 23.16,10.66 22.96,10.83 C22.11,11.54 21.04,11.93 19.94,11.93 C18.84,11.93 17.86,11.57 17.04,10.92 C16.11,11.11 15.2,11.38 14.33,11.75 C15.7,13.44 17.77,14.44 19.94,14.44 C22.25,14.44 24.44,13.32 25.79,11.43 C25.91,11.26 26.03,11.09 26.13,10.92 C26.23,10.75 26.33,10.57 26.42,10.39 C26.91,9.4 27.15,8.33 27.15,7.22 C27.15,7.11 27.15,7 27.15,6.87 C27.14,6.65 27.12,6.42 27.09,6.2 C27.06,5.97 27.01,5.73 26.96,5.5 C26.17,2.26 23.29,0 19.96,0 C16.83,0 14.1,2 13.12,4.92 C14.2,4.56 15.32,4.28 16.44,4.09 C17.33,3.08 18.61,2.51 19.95,2.51 L19.94,2.54 Z" id="Path" fill="url(&quot;#SvgjsLinearGradient6190&quot;)"></path>                </g>                <rect id="Rectangle" x="17.83" y="18.14" width="4.6" height="32.46" rx="2.3" fill="url(&quot;#SvgjsLinearGradient6190&quot;)"></rect>            </g>        </g>    </g></g><g id="SvgjsG6187" featurekey="nameFeature-0" transform="matrix(4.385556652048813,0,0,4.385556652048813,114.01963635065422,-50.414615782985074)" fill="url(&quot;#SvgjsLinearGradient6193&quot;)"><path d="M5.7219 39.946524 l-3.6898 0 l0 -27.166 l-0.66845 -0.82888 l4.3583 0 l0 27.995 z M9.812877005347593 22.46 l4.7861 0 c1.4171 0 2.6471 1.1765 2.6471 2.6203 l0 2.861 l-3.2086 0 l0 -1.8182 l-4.7594 0 l1.0963 0.82888 l0 0.9893 l6.8717 5 l0 4.4652 c0 1.4973 -1.2299 2.6471 -2.6471 2.6471 l-4.7861 0 c-1.4706 0 -2.6203 -1.1497 -2.6203 -2.6471 l0 -2.861 l3.1818 0 l0 1.8449 l3.6364 0 l0 -1.8449 l-6.8449 -4.9733 l0 -4.492 c0 -1.4706 1.1497 -2.6203 2.6471 -2.6203 z M20.77536524064171 26.07 l1.0963 0.80214 l0 9.4385 l3.6364 0 l0 -10.241 l-4.7326 0 z M28.71646524064171 25.027 l0 12.326 c0 1.4171 -1.2299 2.6471 -2.6471 2.6471 l-4.7594 0 c-1.4973 0 -2.6471 -1.2299 -2.6471 -2.6471 l0 -12.326 c0 -1.4973 1.1497 -2.6471 2.6471 -2.6471 l4.7594 0 c1.4973 0 2.6471 1.2299 2.6471 2.6471 z M29.679108021390377 12.032 l6.1765 0 l2.4866 9.4385 l2.5134 -9.4385 l5.508 0 l-0.026738 27.995 l-3.6631 0 l0 -20.535 l-4.3316 16.257 l0 0.026738 l0 -0.026738 l0 0.026738 l0 -0.026738 l-4.3048 -16.257 l0 20.535 l-3.6898 0 l0 -27.193 z M47.8609577540107 12.032 l4.3583 0 l0 23.77 l6.1497 0 l0 4.2246 l-9.8396 0 l0 -0.026738 l0 -4.1979 l0 -22.968 z" fill="url(&quot;#SvgjsLinearGradient6193&quot;)"></path></g></svg>